# xmcd
#
# Track frame offsets:
#	150
#	33211
#	57725
#	77293
#	97535
#	111031
#	135005
#	150586
#	165365
#	181806
#	196898
#	215261
#	234506
#
# Disc length: 3271 seconds
#
# Revision: 0
# Processed by: cddbd v1.5.2PL0 Copyright (c) Steve Scherf et al.
# Submitted via: EasyCDDAExtractor 16.0.1.1
#
DISCID=890cc50d
DTITLE=Axel Zwingenberger and Champion Jack Dupree - Champ's Housewarming Vol 5
DYEAR=1988
DGENRE=Blues
TTITLE0=Axel Zwingenberger and MBB - Champ's Housewarming
TTITLE1=Axel Zwingenberger and MBB - When I Was One Year Old
TTITLE2=Axel Zwingenberger and MBB - Mean Mistreater
TTITLE3=Axel Zwingenberger and MBB - Tricks Ain't Walkin' No More
TTITLE4=Axel Zwingenberger and MBB - Shake Baby Shake
TTITLE5=Champion Jack Dupree and Axel Zwingenberger - I Wouldn't Be Where I Am
TTITLE6=Champion Jack Dupree and Axel Zwingenberger - Night Time Is The Right Ti
TTITLE6=me
TTITLE7=Champion Jack Dupree and Axel Zwingenberger - The Lock On My Door
TTITLE8=Champion Jack Dupree and Axel Zwingenberger - Who's Been Here
TTITLE9=Champion Jack Dupree and Axel Zwingenberger - Hell On Earth
TTITLE10=Champion Jack Dupree and Axel Zwingenberger - Midnight Hour Blues
TTITLE11=Champion Jack Dupree and Axel Zwingenberger - Fine And Mellow
TTITLE12=Champion Jack Dupree and Axel Zwingenberger - Hand Me Down My Walking C
TTITLE12=ane
EXTD=
EXTT0=
EXTT1=
EXTT2=
EXTT3=
EXTT4=
EXTT5=
EXTT6=
EXTT7=
EXTT8=
EXTT9=
EXTT10=
EXTT11=
EXTT12=
PLAYORDER=
